<?xml version="1.0" standalone="no"?>
<!DOCTYPE svg PUBLIC "-//W3C//DTD SVG 20010904//EN"
 "http://www.w3.org/TR/2001/REC-SVG-20010904/DTD/svg10.dtd">
<svg version="1.0" xmlns="http://www.w3.org/2000/svg"
 width="807.000000pt" height="343.000000pt" viewBox="0 0 807.000000 343.000000"
 preserveAspectRatio="xMidYMid meet">

<g transform="translate(0.000000,343.000000) scale(0.100000,-0.100000)"
fill="#000000" stroke="none">
<path d="M0 1715 l0 -1715 4035 0 4035 0 0 1715 0 1715 -4035 0 -4035 0 0
-1715z m4213 1318 c-7 -2 -21 -2 -30 0 -10 3 -4 5 12 5 17 0 24 -2 18 -5z
m-64 -7 c-2 -2 -15 -9 -29 -15 -24 -11 -24 -11 -6 3 16 13 49 24 35 12z m127
-12 c18 -14 18 -14 -6 -3 -31 14 -36 19 -24 19 6 0 19 -7 30 -16z m-18 -28
c136 -71 136 -301 0 -372 -101 -53 -218 47 -218 186 0 139 117 239 218 186z
m63 -3 c13 -16 12 -17 -3 -4 -17 13 -22 21 -14 21 2 0 10 -8 17 -17z m66 -210
c-2 -16 -4 -3 -4 27 0 30 2 43 4 28 2 -16 2 -40 0 -55z m-373 52 c-4 -8 -8
-15 -10 -15 -2 0 -4 7 -4 15 0 8 4 15 10 15 5 0 7 -7 4 -15z m6 -61 c0 -8 -4
-14 -10 -14 -5 0 -10 9 -10 21 0 11 5 17 10 14 6 -3 10 -13 10 -21z m286 -159
c-22 -19 -46 -35 -55 -35 -9 1 0 9 20 20 19 10 41 26 48 34 8 9 16 16 20 16 3
-1 -12 -16 -33 -35z m-171 -21 c16 -7 24 -13 16 -14 -19 0 -81 39 -81 52 0 5
8 2 17 -8 9 -9 31 -23 48 -30z m83 -21 c-10 -2 -26 -2 -35 0 -10 3 -2 5 17 5
19 0 27 -2 18 -5z m-1013 -73 c3 -6 -1 -7 -9 -4 -18 7 -21 14 -7 14 6 0 13 -4
16 -10z m338 -160 c3 -11 1 -18 -4 -14 -5 3 -9 12 -9 20 0 20 7 17 13 -6z
m-69 -330 c-2 -185 -89 -274 -269 -275 l-80 0 1 85 c1 127 37 201 119 243 56
29 90 36 165 34 l65 -2 -1 -85z m-734 -544 c0 -2 -8 -10 -17 -17 -16 -13 -17
-12 -4 4 13 16 21 21 21 13z m754 -151 c9 -14 15 -25 13 -25 -2 0 -13 11 -25
25 -12 14 -18 25 -13 25 5 0 16 -11 25 -25z m234 -120 c-3 -3 -9 2 -12 12 -6
14 -5 15 5 6 7 -7 10 -15 7 -18z m40 -100 c-3 -3 -9 2 -12 12 -6 14 -5 15 5 6
7 -7 10 -15 7 -18z m63 -362 c13 -16 12 -17 -3 -4 -17 13 -22 21 -14 21 2 0
10 -8 17 -17z"/>
<path d="M4167 2842 c-22 -24 -21 -65 1 -85 25 -23 48 -21 66 5 21 30 21 69 1
62 -10 -4 -15 0 -15 15 0 27 -30 28 -53 3z"/>
<path d="M3350 2073 c-136 -23 -201 -98 -215 -248 -9 -91 0 -100 88 -91 71 9
146 38 176 69 49 53 90 227 61 262 -12 14 -54 18 -110 8z m-15 -69 c22 -1 43
-3 48 -3 13 -2 7 -101 -8 -131 -16 -31 -51 -56 -72 -52 -7 2 -13 -1 -13 -5 0
-5 -18 -7 -39 -5 -30 3 -41 9 -45 25 -6 23 11 106 25 122 5 5 9 16 9 25 0 23
22 42 40 34 8 -4 33 -8 55 -10z"/>
<path d="M3292 1958 c-7 -7 -9 -28 -5 -57 9 -72 21 -70 21 3 0 36 -1 66 -2 66
-1 0 -7 -5 -14 -12z"/>
</g>
</svg>
